P2
# Created by GIMP version 2.10.12 PNM plug-in
10 10
255
255
255
255
8
255
255
255
255
255
255
255
255
255
4
255
255
255
255
255
255
255
255
255
1
254
255
255
255
255
255
255
255
255
2
2
4
7
255
255
255
255
255
255
255
254
254
255
255
255
255
255
255
255
255
255
255
255
255
255
255
255
255
255
255
255
255
255
255
255
255
255
255
255
255
255
6
255
255
255
255
255
255
255
255
255
10
255
255
255
255
255
255
255
255
255
7
255
255
255
255
